# xmcd CD database file
#
# Track frame offsets:
#	150
#	22125
#	29398
#	31803
#	45344
#	47850
#	51005
#	60825
#	61755
#	70762
#	86711
#	95680
#	97615
#	110476
#	111416
#	131311
#	140968
#	142291
#	158787
#	160066
#	166512
#	167978
#	172720
#	181246
#	183563
#	185024
#	193958
#	214447
#
# Disc length: 2949 seconds
#
# Revision: 0
# Processed by: cddbd v1.5.1PL2 Copyright (c) Steve Scherf et al.
# Submitted via: CDex 1.50Beta3
#
DISCID=8a0b831c
DTITLE=Domingo Quinones - Quien Mato a Hector Lavoe
DYEAR=1999
DGENRE=Salsa
TTITLE0=El Cantante
TTITLE1=Paraiso De Dulzira
TTITLE2=Mi Hermana
TTITLE3=Tus Ojos
TTITLE4=La Murga
TTITLE5=Todos Peres-seran
TTITLE6=Hacha y Machete
TTITLE7=Y ese Traje
TTITLE8=Que Bien Te ves!
TTITLE9=Triste Y Vacia
TTITLE10=Periodico De Ayer
TTITLE11=El Hombre viene
TTITLE12=Pirana
TTITLE13=Yo soy Cantante no mas
TTITLE14=Todo Tiene Su Final
TTITLE15=Mi Gente
TTITLE16=Tienes que ser mas puntual
TTITLE17=El Rey De la Puntualidad
TTITLE18=Un dia de estos 
TTITLE19=Felices Horas
TTITLE20=Tenia problemas su Hijo
TTITLE21=Cada Cabeza es un Mundo
TTITLE22=El Todo Poderoso
TTITLE23=Cojelo con Calma
TTITLE24=Otro Sonero
TTITLE25=La Voz De Siempre
TTITLE26=La Fama
TTITLE27=Che Che Cole
EXTD=YEAR: 1999
EXTT0=
EXTT1=
EXTT2=
EXTT3=
EXTT4=
EXTT5=
EXTT6=
EXTT7=
EXTT8=
EXTT9=
EXTT10=
EXTT11=
EXTT12=
EXTT13=
EXTT14=
EXTT15=
EXTT16=
EXTT17=
EXTT18=
EXTT19=
EXTT20=
EXTT21=
EXTT22=
EXTT23=
EXTT24=
EXTT25=
EXTT26=
EXTT27=
PLAYORDER=
